# xmcd CD database file
#
# Track frame offsets:
#	150
#	20834
#	41351
#	65083
#	85984
#	103809
#	117839
#	141426
#	161275
#	181710
#	203146
#
# Disc length: 2786 seconds
#
# Revision: 1
# Processed by: cddbd v1.5.1PL0 Copyright (c) Steve Scherf et al.
# Submitted via: CDex 1.51
#
DISCID=950ae00b
DTITLE=Various Artist - Stillhet Vol 2 [Cd2]
DYEAR=2001
DGENRE=New Age
TTITLE0=Come Silver Moon
TTITLE1=Bays Of Contented Men
TTITLE2=Clare To Here
TTITLE3=Fields
TTITLE4=Chalice and The Changeling
TTITLE5=Beloved
TTITLE6=Tombs Of Isis
TTITLE7=Another Time, Another Place
TTITLE8=Sanctus
TTITLE9=God Of All Names
TTITLE10=And Soon The Day Will Fade Away
EXTD=YEAR: 2001
EXTT0=
EXTT1=
EXTT2=
EXTT3=
EXTT4=
EXTT5=
EXTT6=
EXTT7=
EXTT8=
EXTT9=
EXTT10=
PLAYORDER=
